<svg xmlns="http://www.w3.org/2000/svg" width="240" height="240" viewBox="100 100 800 800"><defs><style>.a{fill:#fff;}.b{fill:#8ab6c1;}</style></defs><title>Uclusion_Logo_Overview</title><path class="a" d="M616,190.67H384a116,116,0,0,0-116,116v217.4A169.26,169.26,0,0,0,437.26,693.33H538.67l116,116V672.59A154.59,154.59,0,0,0,732,538.67v-232A116,116,0,0,0,616,190.67Z"/><path d="M345.17,457.65V268.12h78.18v187.5c0,57.87,28.93,87.82,76.65,87.82s76.65-28.94,76.65-85.29v-190h78.18v187c0,107.62-60.41,160.41-155.85,160.41S345.17,562.22,345.17,457.65Z"/><path class="b" d="M616,152H384c-85.28,0-154.67,69.38-154.67,154.67v217.4A207.93,207.93,0,0,0,437.26,732h85.39L627.32,836.67a38.66,38.66,0,0,0,66-27.34V693.23a193.14,193.14,0,0,0,77.34-154.56v-232C770.67,221.38,701.28,152,616,152ZM732,538.67a154.59,154.59,0,0,1-77.33,133.92V809.33l-116-116H437.26A169.26,169.26,0,0,1,268,524.07V306.67a116,116,0,0,1,116-116H616a116,116,0,0,1,116,116Z"/></svg>